Coordinates
version=1
nRows=14
nColumns=24
inDegrees=yes

Units are S.I. units (second, meters, Newtons, ...)
Angles are in degrees.

endheader
time	pelvis_tilt	pelvis_list	pelvis_rotation	pelvis_tx	pelvis_ty	pelvis_tz	hip_flexion_r	hip_adduction_r	hip_rotation_r	knee_angle_r	ankle_angle_r	subtalar_angle_r	mtp_angle_r	hip_flexion_l	hip_adduction_l	hip_rotation_l	knee_angle_l	ankle_angle_l	subtalar_angle_l	mtp_angle_l	lumbar_extension	lumbar_bending	lumbar_rotation
      4.34000000	     -8.53045456	      3.88774513	     -9.37592808	     -0.64155840	     -0.05376578	      0.57048894	     -8.79691865	     -3.43098411	      4.23357948	    -14.25009638	     13.88997002	      2.01750881	      5.16825177	     38.35646295	     -1.15870443	    -20.29766421	    -15.41397395	     -1.95232000	     17.88918248	     -4.26796263	      4.80006815	     -3.67854041	     14.59105460
      4.34500000	     -8.59309400	      4.33154839	     -9.39157123	     -0.63342814	     -0.05496123	      0.57027315	     -8.81060167	     -4.01823429	      4.14591057	    -15.01217817	     13.59920703	      2.29523242	      5.49862845	     38.49540165	     -0.74297878	    -20.37817158	    -16.10363155	     -2.94231981	     17.13075189	     -3.30650290	      5.05612059	     -4.21772750	     14.61690552
      4.35000000	     -8.66321054	      4.78669435	     -9.46357905	     -0.62535083	     -0.05604960	      0.57011580	     -8.76333844	     -4.62232466	      4.20123744	    -15.84030888	     13.21163718	      2.56604989	      5.80714234	     38.67765512	     -0.36336940	    -20.39905176	    -16.91180134	     -3.83435685	     16.34937292	     -2.79839403	      5.31766873	     -4.76560087	     14.68216841
      4.35500000	     -8.72055807	      5.26286321	     -9.41956338	     -0.61719550	     -0.05705513	      0.56978442	     -8.70323594	     -5.25761908	      4.01885097	    -16.73809054	     12.73735981	      2.99626336	      6.28629938	     38.87682664	      0.11139927	    -20.27341709	    -17.75566275	     -4.80379871	     15.51435008	     -2.09541682	      5.56660040	     -5.34443002	     14.61715144
      4.36000000	     -8.74261735	      5.71440509	     -9.30173472	     -0.60900731	     -0.05794391	      0.56943041	     -8.66846912	     -5.86399801	      3.73790239	    -17.67697816	     12.10493548	      3.38072881	      6.92469250	     39.07812563	      0.58922549	    -20.10551428	    -18.69574893	     -5.71469367	     14.81285459	     -1.26529901	      5.76492173	     -5.92851358	     14.47624072
      4.36500000	     -8.79043821	      6.16314566	     -9.26928481	     -0.60088413	     -0.05874702	      0.56910642	     -8.52421332	     -6.47575107	      3.67850114	    -18.73532901	     11.39325310	      3.80796114	      7.44767352	     39.33166894	      1.01458199	    -19.89365134	    -19.73856351	     -6.37389141	     14.03980372	     -0.95465070	      5.99115015	     -6.48105327	     14.40496542
      4.37000000	     -8.82362058	      6.59533413	     -9.15070336	     -0.59271520	     -0.05945185	      0.56868436	     -8.36189299	     -7.07869761	      3.44261700	    -19.87645351	     10.55718032	      4.34396910	      8.10658024	     39.58354337	      1.48167042	    -19.58509621	    -20.82606772	     -6.91507761	     13.33118695	     -0.69833297	      6.19029196	     -7.03270345	     14.25280938
      4.37500000	     -8.87635418	      7.02539070	     -9.01793197	     -0.58451430	     -0.06004793	      0.56828192	     -8.12777289	     -7.67340610	      3.25882898	    -21.11160027	      9.57935208	      4.87210649	      8.70138275	     39.84224483	      1.95125149	    -19.26446063	    -21.91919754	     -7.31362905	     12.72159384	     -0.56911013	      6.41475382	     -7.58532711	     14.09420987
      4.38000000	     -8.89317748	      7.36352017	     -8.85029313	     -0.57638205	     -0.06054672	      0.56772827	     -7.87244924	     -8.20413600	      2.94350773	    -22.45775414	      8.48957373	      5.59978709	      9.46561326	     40.05805818	      2.38445591	    -18.87661575	    -23.03920213	     -7.52987786	     12.11037167	     -0.42963915	      6.55858349	     -8.03484681	     13.88567276
      4.38500000	     -8.89914324	      7.68221200	     -8.65730268	     -0.56822828	     -0.06090532	      0.56716213	     -7.58674949	     -8.71973546	      2.64286317	    -23.86719287	      7.23732088	      6.31113495	     10.32106055	     40.21701234	      2.82751921	    -18.49615936	    -24.10154055	     -7.63422976	     11.59285195	     -0.28124257	      6.68650382	     -8.47184470	     13.64551352
      4.39000000	     -8.89701294	      7.95112188	     -8.44691132	     -0.56013271	     -0.06114013	      0.56657035	     -7.25133020	     -9.18987582	      2.34936474	    -25.36409365	      5.85104598	      7.04600542	     11.17014928	     40.31617334	      3.24766162	    -18.13806592	    -25.09654586	     -7.61824826	     11.17139770	     -0.08335726	      6.78126100	     -8.85865235	     13.38718228
      4.39500000	     -8.89592834	      8.19980479	     -8.21243148	     -0.55206825	     -0.06125954	      0.56593612	     -6.85900353	     -9.64790937	      2.04078258	    -26.93328994	      4.34882485	      7.78968787	     12.02323321	     40.35194261	      3.68067016	    -17.79626254	    -25.98727683	     -7.52410688	     10.81219111	      0.19891971	      6.86468503	     -9.22350321	     13.10284319
      4.40000000	     -8.89914439	      8.43383675	     -7.95375151	     -0.54406060	     -0.06125270	      0.56526093	     -6.40548957	    -10.09675248	      1.73638784	    -28.56190944	      2.74627930	      8.51987999	     12.88963322	     40.31619063	      4.13226104	    -17.47573254	    -26.74311497	     -7.38351467	     10.50909498	      0.60362517	      6.93776730	     -9.57460820	     12.79782582
      4.40500000	     -8.90302990	      8.65496445	     -7.68273229	     -0.53614668	     -0.06113445	      0.56456282	     -5.88593347	    -10.53645226	      1.43751524	    -30.25574450	      1.09134534	      9.19676478	     13.69843192	     40.20937162	      4.59064347	    -17.19684576	    -27.37185948	     -7.19524492	     10.27486970	      1.13853108	      6.99521620	     -9.91029041	     12.48318747
